<?xml version="1.0" encoding="UTF-8" standalone="no"?><svg xmlns="http://www.w3.org/2000/svg" xmlns:xlink="http://www.w3.org/1999/xlink" contentScriptType="application/ecmascript" contentStyleType="text/css" height="1387.5px" preserveAspectRatio="none" style="width:1534px;height:1387px;" version="1.1" viewBox="0 0 1534 1387" width="1534.375px" zoomAndPan="magnify"><defs><filter height="300%" id="f1fo06esbmcwb9" width="300%" x="-1" y="-1"><feGaussianBlur result="blurOut" stdDeviation="6.25"/><feColorMatrix in="blurOut" result="blurOut2" type="matrix" values="0 0 0 0 0 0 0 0 0 0 0 0 0 0 0 0 0 0 .4 0"/><feOffset dx="12.5" dy="12.5" in="blurOut2" result="blurOut3"/><feBlend in="SourceGraphic" in2="blurOut3" mode="normal"/></filter></defs><g><path d="M600,368.75 C600,359.375 606.25,353.125 615.625,353.125 C625,353.125 631.25,359.375 631.25,368.75 C631.25,359.375 637.5,353.125 646.875,353.125 C656.25,353.125 662.5,359.375 662.5,368.75 C662.5,359.375 668.75,353.125 678.125,353.125 C687.5,353.125 693.75,359.375 693.75,368.75 C693.75,359.375 700,353.125 709.375,353.125 C718.75,353.125 725,359.375 725,368.75 C725,359.375 731.25,353.125 740.625,353.125 C750,353.125 756.25,359.375 756.25,368.75 C756.25,359.375 762.5,353.125 771.875,353.125 C781.25,353.125 787.5,359.375 787.5,368.75 C787.5,359.375 793.75,353.125 803.125,353.125 C812.5,353.125 818.75,359.375 818.75,368.75 C818.75,359.375 825,353.125 834.375,353.125 C843.75,353.125 850,359.375 850,368.75 C850,359.375 856.25,353.125 865.625,353.125 C875,353.125 881.25,359.375 881.25,368.75 C881.25,359.375 887.5,353.125 896.875,353.125 C906.25,353.125 912.5,359.375 912.5,368.75 C921.875,368.75 928.125,375 928.125,384.375 C928.125,393.75 921.875,400 912.5,400 C921.875,400 928.125,406.25 928.125,415.625 C928.125,425 921.875,431.25 912.5,431.25 C921.875,431.25 928.125,437.5 928.125,446.875 C928.125,456.25 921.875,462.5 912.5,462.5 C921.875,462.5 928.125,468.75 928.125,478.125 C928.125,487.5 921.875,493.75 912.5,493.75 C921.875,493.75 928.125,500 928.125,509.375 C928.125,518.75 921.875,525 912.5,525 C912.5,534.375 903.125,540.625 896.875,540.625 C887.5,540.625 881.25,534.375 881.25,525 C881.25,534.375 871.875,540.625 865.625,540.625 C856.25,540.625 850,534.375 850,525 C850,534.375 840.625,540.625 834.375,540.625 C825,540.625 818.75,534.375 818.75,525 C818.75,534.375 809.375,540.625 803.125,540.625 C793.75,540.625 787.5,534.375 787.5,525 C787.5,534.375 778.125,540.625 771.875,540.625 C762.5,540.625 756.25,534.375 756.25,525 C756.25,534.375 746.875,540.625 740.625,540.625 C731.25,540.625 725,534.375 725,525 C725,534.375 715.625,540.625 709.375,540.625 C700,540.625 693.75,534.375 693.75,525 C693.75,534.375 684.375,540.625 678.125,540.625 C668.75,540.625 662.5,534.375 662.5,525 C662.5,534.375 653.125,540.625 646.875,540.625 C637.5,540.625 631.25,534.375 631.25,525 C631.25,534.375 621.875,540.625 615.625,540.625 C606.25,540.625 600,534.375 600,525 C590.625,525 584.375,518.75 584.375,509.375 C584.375,500 590.625,493.75 600,493.75 C590.625,493.75 584.375,487.5 584.375,478.125 C584.375,468.75 590.625,462.5 600,462.5 C590.625,462.5 584.375,456.25 584.375,446.875 C584.375,437.5 590.625,431.25 600,431.25 C590.625,431.25 584.375,425 584.375,415.625 C584.375,406.25 590.625,400 600,400 C590.625,400 584.375,393.75 584.375,384.375 C584.375,375 590.625,368.75 600,368.75 " fill="#FFFFFF" filter="url(#f1fo06esbmcwb9)" style="stroke: #000000; stroke-width: 4.6875;"/><!--cluster AWS--><polygon fill="#FFFFFF" filter="url(#f1fo06esbmcwb9)" points="68.75,634.375,200,634.375,221.875,704.0527,1465.625,704.0527,1465.625,1350,68.75,1350,68.75,634.375" style="stroke: #000000; stroke-width: 4.6875;"/><line style="stroke: #000000; stroke-width: 4.6875;" x1="68.75" x2="221.875" y1="704.0527" y2="704.0527"/><text fill="#000000" font-family="sans-serif" font-size="43.75" font-weight="bold" lengthAdjust="spacingAndGlyphs" textLength="112.5" x="81.25" y="681.2347">AWS</text><!--entity I--><rect fill="#FEFECE" filter="url(#f1fo06esbmcwb9)" height="113.4277" style="stroke: #A80036; stroke-width: 4.6875;" width="240.625" x="640.625" y="396.875"/><rect fill="#FEFECE" height="15.625" style="stroke: #A80036; stroke-width: 4.6875;" width="31.25" x="625" y="412.5"/><rect fill="#FEFECE" height="15.625" style="stroke: #A80036; stroke-width: 4.6875;" width="31.25" x="625" y="479.0527"/><text fill="#000000" font-family="sans-serif" font-size="43.75" lengthAdjust="spacingAndGlyphs" textLength="178.125" x="671.875" y="468.7347">API Rest</text><!--entity DynamoDB--><rect fill="#FEFECE" filter="url(#f1fo06esbmcwb9)" height="113.4277" style="stroke: #A80036; stroke-width: 4.6875;" width="306.25" x="118.75" y="1187.5"/><rect fill="#FEFECE" height="15.625" style="stroke: #A80036; stroke-width: 4.6875;" width="31.25" x="103.125" y="1203.125"/><rect fill="#FEFECE" height="15.625" style="stroke: #A80036; stroke-width: 4.6875;" width="31.25" x="103.125" y="1269.6777"/><text fill="#000000" font-family="sans-serif" font-size="43.75" lengthAdjust="spacingAndGlyphs" textLength="243.75" x="150" y="1259.3597">DynamoDB</text><!--entity Lambda ..1--><rect fill="#FEFECE" filter="url(#f1fo06esbmcwb9)" height="113.4277" style="stroke: #A80036; stroke-width: 4.6875;" width="296.875" x="612.5" y="1187.5"/><rect fill="#FEFECE" height="15.625" style="stroke: #A80036; stroke-width: 4.6875;" width="31.25" x="596.875" y="1203.125"/><rect fill="#FEFECE" height="15.625" style="stroke: #A80036; stroke-width: 4.6875;" width="31.25" x="596.875" y="1269.6777"/><text fill="#000000" font-family="sans-serif" font-size="43.75" lengthAdjust="spacingAndGlyphs" textLength="234.375" x="643.75" y="1259.3597">Lambda ..1</text><!--entity Lambda ..2--><rect fill="#FEFECE" filter="url(#f1fo06esbmcwb9)" height="113.4277" style="stroke: #A80036; stroke-width: 4.6875;" width="296.875" x="612.5" y="965.625"/><rect fill="#FEFECE" height="15.625" style="stroke: #A80036; stroke-width: 4.6875;" width="31.25" x="596.875" y="981.25"/><rect fill="#FEFECE" height="15.625" style="stroke: #A80036; stroke-width: 4.6875;" width="31.25" x="596.875" y="1047.8027"/><text fill="#000000" font-family="sans-serif" font-size="43.75" lengthAdjust="spacingAndGlyphs" textLength="234.375" x="643.75" y="1037.4847">Lambda ..2</text><!--entity Lambda ..n--><rect fill="#FEFECE" filter="url(#f1fo06esbmcwb9)" height="113.4277" style="stroke: #A80036; stroke-width: 4.6875;" width="296.875" x="612.5" y="743.75"/><rect fill="#FEFECE" height="15.625" style="stroke: #A80036; stroke-width: 4.6875;" width="31.25" x="596.875" y="759.375"/><rect fill="#FEFECE" height="15.625" style="stroke: #A80036; stroke-width: 4.6875;" width="31.25" x="596.875" y="825.9277"/><text fill="#000000" font-family="sans-serif" font-size="43.75" lengthAdjust="spacingAndGlyphs" textLength="234.375" x="643.75" y="815.6097">Lambda ..n</text><!--entity API gateway--><rect fill="#FEFECE" filter="url(#f1fo06esbmcwb9)" height="113.4277" style="stroke: #A80036; stroke-width: 4.6875;" width="318.75" x="1096.875" y="856.25"/><rect fill="#FEFECE" height="15.625" style="stroke: #A80036; stroke-width: 4.6875;" width="31.25" x="1081.25" y="871.875"/><rect fill="#FEFECE" height="15.625" style="stroke: #A80036; stroke-width: 4.6875;" width="31.25" x="1081.25" y="938.4277"/><text fill="#000000" font-family="sans-serif" font-size="43.75" lengthAdjust="spacingAndGlyphs" textLength="256.25" x="1128.125" y="928.1097">API gateway</text><!--entity RDS--><rect fill="#FEFECE" filter="url(#f1fo06esbmcwb9)" height="113.4277" style="stroke: #A80036; stroke-width: 4.6875;" width="156.25" x="193.75" y="743.75"/><rect fill="#FEFECE" height="15.625" style="stroke: #A80036; stroke-width: 4.6875;" width="31.25" x="178.125" y="759.375"/><rect fill="#FEFECE" height="15.625" style="stroke: #A80036; stroke-width: 4.6875;" width="31.25" x="178.125" y="825.9277"/><text fill="#000000" font-family="sans-serif" font-size="43.75" lengthAdjust="spacingAndGlyphs" textLength="93.75" x="225" y="815.6097">RDS</text><!--entity U--><ellipse cx="760.9375" cy="57.8125" fill="#FEFECE" filter="url(#f1fo06esbmcwb9)" rx="25" ry="25" style="stroke: #A80036; stroke-width: 6.25;"/><path d="M760.9375,82.8125 L760.9375,167.1875 M720.3125,107.8125 L801.5625,107.8125 M760.9375,167.1875 L720.3125,214.0625 M760.9375,167.1875 L801.5625,214.0625 " fill="none" filter="url(#f1fo06esbmcwb9)" style="stroke: #A80036; stroke-width: 6.25;"/><text fill="#000000" font-family="sans-serif" font-size="43.75" lengthAdjust="spacingAndGlyphs" textLength="125" x="698.4375" y="276.5472">Users</text><!--link DynamoDB to Lambda ..1--><path d="M442.0719,1243.75 C491.7281,1243.75 546.0344,1243.75 595.3906,1243.75 " fill="none" id="DynamoDB-Lambda ..1" style="stroke: #A80036; stroke-width: 3.125;"/><polygon fill="#A80036" points="611.925,1243.75,583.8,1231.25,596.3,1243.75,583.8,1256.25,611.925,1243.75" style="stroke: #A80036; stroke-width: 3.125;"/><polygon fill="#A80036" points="425.1188,1243.75,453.2438,1256.25,440.7438,1243.75,453.2438,1231.25,425.1188,1243.75" style="stroke: #A80036; stroke-width: 3.125;"/><!--link Lambda ..1 to Lambda ..2--><path d="M760.9375,1187.4147 C760.9375,1151.2028 760.9375,1114.9909 760.9375,1078.7781 " fill="none" id="Lambda ..1-Lambda ..2" style="stroke: #A80036; stroke-width: 3.125; stroke-dasharray: 7.0,7.0;"/><!--link Lambda ..2 to Lambda ..n--><path d="M760.9375,965.5406 C760.9375,929.3281 760.9375,893.1156 760.9375,856.9031 " fill="none" id="Lambda ..2-Lambda ..n" style="stroke: #A80036; stroke-width: 3.125; stroke-dasharray: 7.0,7.0;"/><!--link API gateway to Lambda ..1--><path d="M1170.0656,978.9469 C1111.6188,1024.6063 1030.825,1085.5562 956.25,1134.375 C932.9437,1149.6322 907.4063,1165.0278 882.7781,1179.2572 " fill="none" id="API gateway-Lambda ..1" style="stroke: #A80036; stroke-width: 3.125;"/><polygon fill="#A80036" points="869.2094,1187.0344,899.826,1183.8895,882.7645,1179.2627,887.3913,1162.2012,869.2094,1187.0344" style="stroke: #A80036; stroke-width: 3.125;"/><polygon fill="#A80036" points="1182.9313,968.8625,1153.0837,976.3719,1170.6328,978.5004,1168.5043,996.0494,1182.9313,968.8625" style="stroke: #A80036; stroke-width: 3.125;"/><!--link API gateway to Lambda ..2--><path d="M1080.7594,951.0469 C1030.05,962.3875 974.7906,974.7469 924.8375,985.9188 " fill="none" id="API gateway-Lambda ..2" style="stroke: #A80036; stroke-width: 3.125;"/><polygon fill="#A80036" points="909.4719,989.3562,939.6471,995.4163,924.7202,985.9459,934.1905,971.019,909.4719,989.3562" style="stroke: #A80036; stroke-width: 3.125;"/><polygon fill="#A80036" points="1096.3406,947.5625,1066.1651,941.5043,1081.0926,950.9738,1071.6231,965.9013,1096.3406,947.5625" style="stroke: #A80036; stroke-width: 3.125;"/><!--link Lambda ..n to API gateway--><path d="M924.8375,836.9844 C974.7906,848.475 1030.05,861.1844 1080.7594,872.85 " fill="none" id="Lambda ..n-API gateway" style="stroke: #A80036; stroke-width: 3.125;"/><polygon fill="#A80036" points="1096.3406,876.4344,1071.7355,857.9451,1081.1137,872.9301,1066.1286,882.3082,1096.3406,876.4344" style="stroke: #A80036; stroke-width: 3.125;"/><polygon fill="#A80036" points="909.4719,833.45,934.077,851.9393,924.6988,836.9543,939.6839,827.5762,909.4719,833.45" style="stroke: #A80036; stroke-width: 3.125;"/><!--link RDS to Lambda ..n--><path d="M366.5406,800 C431.1594,800 519.4844,800 595.8656,800 " fill="none" id="RDS-Lambda ..n" style="stroke: #A80036; stroke-width: 3.125;"/><polygon fill="#A80036" points="611.9719,800,583.8469,787.5,596.3469,800,583.8469,812.5,611.9719,800" style="stroke: #A80036; stroke-width: 3.125;"/><polygon fill="#A80036" points="350.4406,800,378.5656,812.5,366.0656,800,378.5656,787.5,350.4406,800" style="stroke: #A80036; stroke-width: 3.125;"/><!--link I to API gateway--><path d="M869.6438,552.2969 C951.3406,629.0344 1064.0094,734.8625 1146.075,811.9469 " fill="none" id="I-API gateway" style="stroke: #A80036; stroke-width: 3.125;"/><polygon fill="none" points="1162.0875,796.975,1192.6656,855.7094,1132.1344,828.8656,1162.0875,796.975" style="stroke: #A80036; stroke-width: 3.125;"/><polygon fill="none" points="854.6094,568.1875,824.0313,509.4531,884.5625,536.3,854.6094,568.1875" style="stroke: #A80036; stroke-width: 3.125;"/><!--link U to I--><path d="M760.9375,302.6469 C760.9375,328.4375 760.9375,354.2281 760.9375,380.0156 " fill="none" id="U-I" style="stroke: #A80036; stroke-width: 3.125;"/><polygon fill="#A80036" points="760.9375,396.3,773.4375,368.175,760.9375,380.675,748.4375,368.175,760.9375,396.3" style="stroke: #A80036; stroke-width: 3.125;"/><polygon fill="#A80036" points="760.9375,286.5906,748.4375,314.7156,760.9375,302.2156,773.4375,314.7156,760.9375,286.5906" style="stroke: #A80036; stroke-width: 3.125;"/><!--
@startuml
left to right direction
skinparam packageStyle rectangle
skinparam backgroundColor transparent
skinparam dpi 300

skinparam package {
  BackgroundColor !transparent
}
actor "Users" as U
cloud {
    component "API Rest" as I 
}

package "AWS" {
[DynamoDB] <- -> [Lambda ..1]
[Lambda ..1] . [Lambda ..2]
[Lambda ..2] . [Lambda ..n]
[API gateway] <- -> [Lambda ..1]
[API gateway] <- -> [Lambda ..2]
[Lambda ..n] <- -> [API gateway]

[RDS] <- -> [Lambda ..n]
}

I <|- -|> [API gateway]
U <->  I
@enduml

PlantUML version 1.2018.07beta8(Unknown compile time)
(GPL source distribution)
Java Runtime: Java(TM) SE Runtime Environment
JVM: Java HotSpot(TM) 64-Bit Server VM
Java Version: 1.7.0_25-b15
Operating System: Linux
Default Encoding: UTF-8
Language: en
Country: US
--></g></svg>